<?xml version="1.0" encoding="utf-8"?>
<!-- Generator: Adobe Illustrator 24.0.2, SVG Export Plug-In . SVG Version: 6.00 Build 0)  -->
<svg version="1.1" id="Layer_1" xmlns="http://www.w3.org/2000/svg" xmlns:xlink="http://www.w3.org/1999/xlink" x="0px" y="0px"
	 viewBox="0 0 876.77 517.94" style="enable-background:new 0 0 876.77 517.94;" xml:space="preserve">
<style type="text/css">
	.st0{clip-path:url(#SVGID_2_);}
	.st1{fill:#F4EDEF;}
	.st2{fill:#FAF7F8;}
	.st3{fill:#FFFFFF;}
	.st4{fill:#3D3C42;}
	.st5{fill:#FBAF46;}
	.st6{fill:#FABAA2;}
</style>
<g>
	<defs>
		<rect id="SVGID_1_" width="876.77" height="517.94"/>
	</defs>
	<clipPath id="SVGID_2_">
		<use xlink:href="#SVGID_1_"  style="overflow:visible;"/>
	</clipPath>
	<g class="st0">
		<rect y="0" class="st1" width="876.77" height="517.94"/>
		<path class="st2" d="M770.52,2.58c0,0-240,379,53,307s204-218,204-218l-67-89l-81-91L770.52,2.58z"/>
		<path class="st3" d="M-45.11-13.16c0,0,306.76,48.3,221.42,198.19c-15.83,27.81-69.68,74.32-72.77,105.29
			c-3.1,30.97,10.47,51.31,38.71,100.65c12.5,21.84-1.55,83.61-86.71,51.1s-114.58,20.13-114.58,20.13L-45.11-13.16z"/>
		<circle class="st4" cx="894.19" cy="123.87" r="82.12"/>
		<circle class="st3" cx="870.15" cy="433.16" r="44.56"/>
		<path class="st5" d="M143.61,158.32c9.04-0.2,22.06-5.81,35.23,8.13c0,0,15.87,12.77,32.52-19.35c0,0,24.46-62.01-31.74-65.81
			c-18.56-1.25-39.48,0.39-48.39,56.52C131.23,137.81,125.39,158.72,143.61,158.32z"/>
		<path class="st6" d="M838.45,447.48c-4.16,3.62-2.84,9.55-20.9,6.97c-6.31-0.9-16.81,21.68,10.56,23.23
			C855.48,479.23,851.38,436.23,838.45,447.48z"/>
		<path class="st6" d="M838.45,447.48c-4.16,3.62-11.35,9.81-20.9,6.97c-6.11-1.82-16.81,21.68,10.56,23.23"/>
	</g>
</g>
</svg>
